<svg xmlns="http://www.w3.org/2000/svg" width="233" height="50" viewBox="0 0 233 50">
  <defs>
    <style>
      .cls-1 {
        fill: #131a57;
        fill-rule: evenodd;
      }
    </style>
  </defs>
  <path id="_OnTheFin" data-name="#OnTheFin" class="cls-1" d="M11.109,23.44a11.417,11.417,0,0,0,3.437-.475,7.359,7.359,0,0,0,2.544-1.344,5.727,5.727,0,0,0,1.578-2.077,6.481,6.481,0,0,0,.539-2.672,4.767,4.767,0,0,0-1.288-3.477A7.116,7.116,0,0,0,14.1,11.576a7.536,7.536,0,0,0,1.908-.869A5.7,5.7,0,0,0,17.363,9.5a4.788,4.788,0,0,0,.8-1.465,5.109,5.109,0,0,0,.266-1.642,6.393,6.393,0,0,0-.475-2.519,4.7,4.7,0,0,0-1.465-1.892A7.1,7.1,0,0,0,13.966.789,14.069,14.069,0,0,0,10.3.371H2.947V23.44h8.162ZM11.044,12.928a5.933,5.933,0,0,1,3.824,1.038,3.463,3.463,0,0,1,1.264,2.825,4.711,4.711,0,0,1-.29,1.682,3.339,3.339,0,0,1-.909,1.32,4.276,4.276,0,0,1-1.578.861,7.586,7.586,0,0,1-2.294.306H6.07V12.928h4.975ZM6.07,2.834H10.3a6.184,6.184,0,0,1,3.8.95,3.535,3.535,0,0,1,1.224,2.978,4.118,4.118,0,0,1-.306,1.6,3.147,3.147,0,0,1-.942,1.248,4.626,4.626,0,0,1-1.6.8,8,8,0,0,1-2.286.29H6.07V2.834ZM26.9,0.371H23.778V23.44h13.1V20.816H26.9V0.371ZM59.646,7.157a10.984,10.984,0,0,0-2.318-3.735A10.4,10.4,0,0,0,53.73.983a12.82,12.82,0,0,0-9.281,0,10.418,10.418,0,0,0-3.59,2.439,10.984,10.984,0,0,0-2.318,3.735,13.318,13.318,0,0,0-.821,4.757,13.316,13.316,0,0,0,.821,4.757A10.892,10.892,0,0,0,40.859,20.4a10.374,10.374,0,0,0,3.59,2.423,12.931,12.931,0,0,0,9.281,0,10.357,10.357,0,0,0,3.6-2.423,10.892,10.892,0,0,0,2.318-3.727,13.316,13.316,0,0,0,.821-4.757A13.318,13.318,0,0,0,59.646,7.157Zm-2.962,8.565a8.079,8.079,0,0,1-1.642,2.849,7.038,7.038,0,0,1-2.576,1.787,9.486,9.486,0,0,1-6.745,0,7.11,7.11,0,0,1-2.584-1.787,8.011,8.011,0,0,1-1.65-2.849,11.65,11.65,0,0,1-.58-3.807,11.723,11.723,0,0,1,.58-3.815,8,8,0,0,1,1.65-2.858,7.2,7.2,0,0,1,2.584-1.8,9.372,9.372,0,0,1,6.745,0,7.128,7.128,0,0,1,2.576,1.8A8.071,8.071,0,0,1,56.684,8.1a11.723,11.723,0,0,1,.58,3.815A11.65,11.65,0,0,1,56.684,15.721ZM85.339,7.157a10.984,10.984,0,0,0-2.318-3.735,10.4,10.4,0,0,0-3.6-2.439,12.82,12.82,0,0,0-9.281,0,10.417,10.417,0,0,0-3.59,2.439,10.98,10.98,0,0,0-2.318,3.735,13.316,13.316,0,0,0-.821,4.757,13.314,13.314,0,0,0,.821,4.757A10.889,10.889,0,0,0,66.552,20.4a10.373,10.373,0,0,0,3.59,2.423,12.931,12.931,0,0,0,9.281,0,10.356,10.356,0,0,0,3.6-2.423,10.892,10.892,0,0,0,2.318-3.727,13.314,13.314,0,0,0,.821-4.757A13.316,13.316,0,0,0,85.339,7.157Zm-2.962,8.565a8.078,8.078,0,0,1-1.642,2.849,7.039,7.039,0,0,1-2.576,1.787,9.486,9.486,0,0,1-6.745,0,7.111,7.111,0,0,1-2.584-1.787,8.012,8.012,0,0,1-1.65-2.849,11.653,11.653,0,0,1-.58-3.807A11.726,11.726,0,0,1,67.18,8.1a8,8,0,0,1,1.65-2.858,7.2,7.2,0,0,1,2.584-1.8,9.373,9.373,0,0,1,6.745,0,7.129,7.129,0,0,1,2.576,1.8A8.071,8.071,0,0,1,82.377,8.1a11.723,11.723,0,0,1,.58,3.815A11.65,11.65,0,0,1,82.377,15.721ZM109.6,7.2a10.556,10.556,0,0,0-2.318-3.646,10.286,10.286,0,0,0-3.591-2.35A12.484,12.484,0,0,0,99.055.371H90.426V23.44h8.629a12.478,12.478,0,0,0,4.636-.829,10.337,10.337,0,0,0,3.591-2.342,10.469,10.469,0,0,0,2.318-3.638,13,13,0,0,0,.821-4.717A13,13,0,0,0,109.6,7.2Zm-2.962,8.516A7.922,7.922,0,0,1,105,18.538,7.047,7.047,0,0,1,102.42,20.3a8.9,8.9,0,0,1-3.365.612h-5.49V2.9h5.49a8.907,8.907,0,0,1,3.365.612A7.007,7.007,0,0,1,105,5.281a8.009,8.009,0,0,1,1.643,2.833,11.59,11.59,0,0,1,.579,3.8A11.588,11.588,0,0,1,106.638,15.713ZM133.377,0.371h-3.139V10.658H117.81V0.371h-3.139V23.44h3.139v-10.5h12.428v10.5h3.139V0.371Zm26.241,6.786A10.978,10.978,0,0,0,157.3,3.422,10.4,10.4,0,0,0,153.7.983a12.82,12.82,0,0,0-9.281,0,10.418,10.418,0,0,0-3.59,2.439,10.978,10.978,0,0,0-2.318,3.735,13.3,13.3,0,0,0-.821,4.757,13.3,13.3,0,0,0,.821,4.757,10.887,10.887,0,0,0,2.318,3.727,10.374,10.374,0,0,0,3.59,2.423,12.932,12.932,0,0,0,9.281,0,10.36,10.36,0,0,0,3.6-2.423,10.887,10.887,0,0,0,2.318-3.727,13.323,13.323,0,0,0,.821-4.757A13.325,13.325,0,0,0,159.618,7.157Zm-2.962,8.565a8.078,8.078,0,0,1-1.642,2.849,7.034,7.034,0,0,1-2.576,1.787,9.485,9.485,0,0,1-6.745,0,7.105,7.105,0,0,1-2.584-1.787,8,8,0,0,1-1.65-2.849,11.634,11.634,0,0,1-.58-3.807,11.707,11.707,0,0,1,.58-3.815,8,8,0,0,1,1.65-2.858,7.2,7.2,0,0,1,2.584-1.8,9.372,9.372,0,0,1,6.745,0,7.123,7.123,0,0,1,2.576,1.8A8.071,8.071,0,0,1,156.656,8.1a11.734,11.734,0,0,1,.579,3.815A11.661,11.661,0,0,1,156.656,15.721ZM171.1,20.47a5.448,5.448,0,0,1-1.916-1.36A5.927,5.927,0,0,1,168,17.033a8.2,8.2,0,0,1-.41-2.656V0.371H164.48V14.393a10.519,10.519,0,0,0,.635,3.7,8.529,8.529,0,0,0,1.828,2.954,8.4,8.4,0,0,0,2.9,1.956,10.716,10.716,0,0,0,7.663,0,8.314,8.314,0,0,0,2.89-1.956,8.6,8.6,0,0,0,1.819-2.954,10.519,10.519,0,0,0,.636-3.7V0.371h-3.107V14.393a8.227,8.227,0,0,1-.41,2.656,5.913,5.913,0,0,1-1.192,2.077,5.362,5.362,0,0,1-1.907,1.352A6.993,6.993,0,0,1,171.1,20.47Zm18.715-20.1h-1.61V23.44h2.737V7c0-.215-0.006-0.451-0.016-0.708s-0.027-.52-0.049-0.789l13.346,17.37a1.567,1.567,0,0,0,.491.435,1.34,1.34,0,0,0,.62.129h1.578V0.371h-2.737v16.34q0,0.371.016,0.765t0.064,0.813L190.9,0.9a1.6,1.6,0,0,0-.458-0.427,1.406,1.406,0,0,0-.62-0.1h0ZM231.724,7.2a10.543,10.543,0,0,0-2.319-3.646,10.273,10.273,0,0,0-3.59-2.35,12.484,12.484,0,0,0-4.636-.829H212.55V23.44h8.629a12.479,12.479,0,0,0,4.636-.829,10.323,10.323,0,0,0,3.59-2.342,10.457,10.457,0,0,0,2.319-3.638,13,13,0,0,0,.821-4.717A13,13,0,0,0,231.724,7.2Zm-2.962,8.516a7.922,7.922,0,0,1-1.643,2.825,7.047,7.047,0,0,1-2.575,1.763,8.9,8.9,0,0,1-3.365.612h-5.49V2.9h5.49a8.907,8.907,0,0,1,3.365.612,7.007,7.007,0,0,1,2.575,1.771,8.009,8.009,0,0,1,1.643,2.833,11.59,11.59,0,0,1,.579,3.8A11.588,11.588,0,0,1,228.762,15.713ZM13.845,43.316l0.12-.76q0.013-.08.02-0.153t0.007-.14a0.7,0.7,0,0,0-.173-0.54,0.721,0.721,0,0,0-.493-0.153H10.937L11.8,37.22h1.841a1.281,1.281,0,0,0,.754-0.18,0.843,0.843,0,0,0,.314-0.567l0.173-1H12.057l0.974-4.735a0.929,0.929,0,0,0,.013-0.173,0.67,0.67,0,0,0-.22-0.52,0.792,0.792,0,0,0-.553-0.2H11.217L10.1,35.473H6.8l1.12-5.629H6.855a1.074,1.074,0,0,0-.687.227A1.024,1.024,0,0,0,5.8,30.7l-0.96,4.775H2.733a1.242,1.242,0,0,0-.76.187,0.883,0.883,0,0,0-.307.574l-0.173.987H4.587L3.72,41.568H1l-0.107.76q-0.013.08-.02,0.16c0,0.053-.007.1-0.007,0.147a0.676,0.676,0,0,0,.173.527,0.7,0.7,0,0,0,.48.153H3.467L2.333,48.958H3.387a1.181,1.181,0,0,0,.687-0.207,1.084,1.084,0,0,0,.407-0.7l0.947-4.735H8.723L7.775,47.931q-0.013.067-.02,0.113a0.692,0.692,0,0,0-.007.1,0.821,0.821,0,0,0,.213.587,0.687,0.687,0,0,0,.52.227h1.08l1.12-5.642h3.161Zm-7.3-6.1H9.843L8.976,41.568H5.681Zm28.465-1.754a9.1,9.1,0,0,0-1.921-3.095,8.616,8.616,0,0,0-2.981-2.021,10.622,10.622,0,0,0-7.69,0,8.629,8.629,0,0,0-2.975,2.021,9.1,9.1,0,0,0-1.921,3.095,11.759,11.759,0,0,0,0,7.883,9.024,9.024,0,0,0,1.921,3.088,8.6,8.6,0,0,0,2.975,2.008,10.715,10.715,0,0,0,7.69,0,8.582,8.582,0,0,0,2.981-2.008,9.024,9.024,0,0,0,1.921-3.088A11.759,11.759,0,0,0,35.013,35.466Zm-2.454,7.1A6.7,6.7,0,0,1,31.2,44.923,5.832,5.832,0,0,1,29.064,46.4a7.859,7.859,0,0,1-5.589,0,5.892,5.892,0,0,1-2.141-1.481,6.636,6.636,0,0,1-1.367-2.361,10.624,10.624,0,0,1,0-6.316,6.63,6.63,0,0,1,1.367-2.368,5.967,5.967,0,0,1,2.141-1.487,7.766,7.766,0,0,1,5.589,0A5.906,5.906,0,0,1,31.2,33.879a6.689,6.689,0,0,1,1.361,2.368A10.624,10.624,0,0,1,32.559,42.562Zm8.67,6.4V39.007a6.476,6.476,0,0,1,1.687-1.374,3.991,3.991,0,0,1,1.968-.507,2.618,2.618,0,0,1,2.141.847,3.638,3.638,0,0,1,.7,2.381v8.6H50.1v-8.6a7.058,7.058,0,0,0-.294-2.094,4.6,4.6,0,0,0-.86-1.621,3.786,3.786,0,0,0-1.414-1.04,4.88,4.88,0,0,0-1.954-.367,5.117,5.117,0,0,0-2.514.6A7.6,7.6,0,0,0,41.1,37.407l-0.187-1.467a0.605,0.605,0,0,0-.64-0.494H38.855V48.958h2.374ZM52.114,29.843v2.174h6.2V48.958H60.9V32.018H67.08V29.843H52.114ZM71.8,48.958V39.007a6.477,6.477,0,0,1,1.687-1.374,3.991,3.991,0,0,1,1.968-.507,2.618,2.618,0,0,1,2.141.847,3.637,3.637,0,0,1,.7,2.381v8.6h2.374v-8.6a7.058,7.058,0,0,0-.293-2.094,4.6,4.6,0,0,0-.86-1.621A3.785,3.785,0,0,0,78.1,35.6a4.88,4.88,0,0,0-1.954-.367,5.145,5.145,0,0,0-2.428.553A7.291,7.291,0,0,0,71.8,37.26V29.31H69.427V48.958H71.8ZM86.968,35.746a5.741,5.741,0,0,0-1.987,1.414,6.223,6.223,0,0,0-1.247,2.127,7.875,7.875,0,0,0-.433,2.641,9.194,9.194,0,0,0,.48,3.095,6.362,6.362,0,0,0,1.341,2.261,5.664,5.664,0,0,0,2.041,1.387,6.874,6.874,0,0,0,2.581.474,8.852,8.852,0,0,0,1.481-.127,8.325,8.325,0,0,0,1.447-.38,6.549,6.549,0,0,0,1.314-.647,4.507,4.507,0,0,0,1.054-.927L94.371,46.2a0.523,0.523,0,0,0-.454-0.227,1.034,1.034,0,0,0-.54.207,8.451,8.451,0,0,1-.78.447,7.333,7.333,0,0,1-1.114.447,5.084,5.084,0,0,1-1.541.207,4.58,4.58,0,0,1-1.734-.313,3.525,3.525,0,0,1-1.334-.947,4.551,4.551,0,0,1-.88-1.581,7.459,7.459,0,0,1-.347-2.228h8.99a0.5,0.5,0,0,0,.454-0.187,1.549,1.549,0,0,0,.12-0.747,7.318,7.318,0,0,0-.42-2.568,5.355,5.355,0,0,0-1.167-1.894,5.036,5.036,0,0,0-1.774-1.174,6.035,6.035,0,0,0-2.241-.407A6.527,6.527,0,0,0,86.968,35.746Zm4.142,1.507a2.988,2.988,0,0,1,1.074.774,3.377,3.377,0,0,1,.667,1.187,4.81,4.81,0,0,1,.227,1.514h-7.35a4.677,4.677,0,0,1,1.227-2.754A4.112,4.112,0,0,1,91.11,37.253Zm7.5-7.41V48.958h2.6V40.741h7.843V38.634h-7.843V31.951h9.177V29.843H98.613Zm14.992,5.6V48.958h2.375V35.446h-2.375Zm2.768-4.9A1.815,1.815,0,0,0,116,30a1.75,1.75,0,0,0-.54-0.367,1.628,1.628,0,0,0-.654-0.133,1.577,1.577,0,0,0-.647.133,1.771,1.771,0,0,0-.534.367,1.71,1.71,0,0,0-.366.547,1.669,1.669,0,0,0-.134.66,1.574,1.574,0,0,0,.134.647,1.771,1.771,0,0,0,.9.9,1.574,1.574,0,0,0,.647.133,1.624,1.624,0,0,0,.654-0.133,1.741,1.741,0,0,0,.54-0.367,1.865,1.865,0,0,0,.373-0.534,1.5,1.5,0,0,0,.14-0.647A1.592,1.592,0,0,0,116.373,30.544Zm6.169,18.414V39.007a6.49,6.49,0,0,1,1.688-1.374,3.991,3.991,0,0,1,1.967-.507,2.618,2.618,0,0,1,2.141.847,3.637,3.637,0,0,1,.7,2.381v8.6h2.374v-8.6a7.042,7.042,0,0,0-.294-2.094,4.585,4.585,0,0,0-.86-1.621,3.783,3.783,0,0,0-1.414-1.04,4.881,4.881,0,0,0-1.954-.367,5.113,5.113,0,0,0-2.514.6,7.6,7.6,0,0,0-1.968,1.574l-0.187-1.467a0.605,0.605,0,0,0-.64-0.494h-1.414V48.958h2.374Z"/>
</svg>
