<svg xmlns="http://www.w3.org/2000/svg" width="7959" height="2994" viewBox="0 0 7959 2994">
  <defs>
    <style>
      .cls-1 {
        fill: #ff921d;
      }

      .cls-1, .cls-2, .cls-3, .cls-4, .cls-5, .cls-6, .cls-7, .cls-8 {
        fill-rule: evenodd;
      }

      .cls-2 {
        fill: #ff680a;
      }

      .cls-3, .cls-4 {
        fill: #ffad6b;
      }

      .cls-3 {
        opacity: 0.64;
      }

      .cls-5 {
        fill: #f06f28;
        opacity: 0.67;
      }

      .cls-6 {
        fill: #fff;
      }

      .cls-7 {
        fill: #0029c7;
      }

      .cls-8 {
        fill: #c64700;
      }
    </style>
  </defs>
  <path id="Color_Fill_1" data-name="Color Fill 1" class="cls-1" d="M0,2828H1137.8s1491.25-149.46,2317.34-166.88,2116.1,7.51,2724.45,93.87c40.96,5.82,250.53,52.15,250.53,52.15l866.39-208.59L7766.25,408.3,7808,366.578,7755.81,304H4926.97v93.868l31.32,20.859L4446.8,919.355l-104.38,10.43h-323.6l-41.75-20.859-187.89,20.859,187.89,31.289,41.75-10.43h334.04s57.42,1.32,41.75,20.86-599.93,608.786-709.82,709.226-514.6,344.91-636.75,406.76S2482.59,2335.2,1784.98,2442.1C1292.86,2517.51,0,2828,0,2828Z"/>
  <path id="Color_Fill_4" data-name="Color Fill 4" class="cls-2" d="M4937.41,387.438l41.76,31.289,2787.08-20.859,20.87-41.719Z"/>
  <path class="cls-2" d="M3814.36,932.323l162.97,25.98,37.2-9.447,359.6-.59,25.39,8.266,15.35,7.676,188.95-14.171Z"/>
  <path id="Color_Fill_5" data-name="Color Fill 5" class="cls-3" d="M4989.6,314.43l31.32,31.289H7734.93v-20.86Z"/>
  <path class="cls-4" d="M3801.49,929.954l176.02-19.348,39.94,21.22h332.68l98.62-11.234,162.28,19.348Z"/>
  <path id="Color_Fill_3" data-name="Color Fill 3" class="cls-5" d="M5705.55,2707.42l302.71-646.64-1265.8,59.03L4633.31,2657.4s407.29,8.26,545.93,16.86C5331.56,2683.71,5705.55,2707.42,5705.55,2707.42Z"/>
  <path id="Color_Fill_6_copy" data-name="Color Fill 6 copy" class="cls-6" d="M7777.42,397.868s-11.56,10.888-11.47,10.838c0.11-.063-50.15,229.046-50.15,229.046H5480.21l241.01-238.335,734.13-.232-241.76,84.336,347.9,13.268,222.6-97.294ZM7622.08,1075.8H4989.6l-960.34,949.11H7171.25L5428.02,1232.25h574.12l1449.32,642.68Z"/>
  <path id="Color_Fill_7" data-name="Color Fill 7" class="cls-7" d="M4465.24,2025.25l597.43-636.56,1445.14,636.59Zm1954.44-793H7588.69l-97.74,455.73Zm827.81-834.16c0-.041-264.13,93.645-264.13,93.645h764.3s18.45-84.611,18.98-84.325c0.25,0.138,10.06-9.455,10.04-9.392C7776.48,398.8,7247.48,398.22,7247.49,398.09Zm-1243.57,1.131-64.41,71.655,243.83-71.445Z"/>
  <path id="Color_Fill_2" data-name="Color Fill 2" class="cls-8" d="M4739.08,2118.78l981.22-83.44,542.8,20.86-292.28,83.44S5060.02,2201.72,4739.08,2118.78Z"/>
</svg>
